<svg width="130" height="47" viewBox="0 0 130 47" fill="none" xmlns="http://www.w3.org/2000/svg"><g clip-path="url(#a)" fill="#fff"><path d="m64.75 14.518 6.181-.39c.135 1.011.408 1.78.819 2.31.67.856 1.627 1.284 2.869 1.284.926 0 1.64-.219 2.144-.656a1.97 1.97 0 0 0 .753-1.523 1.944 1.944 0 0 0-.706-1.472c-.47-.432-1.58-.841-3.327-1.227-2.85-.644-4.883-1.5-6.097-2.57a5.163 5.163 0 0 1-1.382-1.83 5.194 5.194 0 0 1-.455-2.253 5.57 5.57 0 0 1 .94-3.075 6.232 6.232 0 0 1 2.822-2.28C70.565.28 72.29.004 74.485.004c2.686 0 4.735.503 6.146 1.509 1.411 1.006 2.25 2.606 2.519 4.798l-6.126.36c-.157-.947-.498-1.64-1.025-2.078-.527-.438-1.248-.657-2.163-.655-.755 0-1.324.163-1.705.485a1.477 1.477 0 0 0-.574 1.183 1.189 1.189 0 0 0 .47.908c.306.28 1.033.54 2.18.78 2.84.616 4.879 1.239 6.114 1.87 1.235.63 2.129 1.412 2.68 2.344a5.97 5.97 0 0 1 .84 3.133 6.74 6.74 0 0 1-1.117 3.752 7.024 7.024 0 0 1-3.127 2.602c-1.34.591-3.029.887-5.065.887-3.576 0-6.053-.692-7.431-2.077-1.378-1.385-2.162-3.147-2.351-5.288Zm-63.276 7.01V.362h10.831c2.008 0 3.543.173 4.604.518a4.924 4.924 0 0 1 2.568 1.926 5.88 5.88 0 0 1 .98 3.428 5.895 5.895 0 0 1-.752 3.037 5.877 5.877 0 0 1-2.053 2.084 7.875 7.875 0 0 1-2.28.838 6.56 6.56 0 0 1 1.69.778c.39.326.74.696 1.044 1.103.343.404.646.84.905 1.303l3.147 6.151h-7.344l-3.47-6.475c-.441-.837-.833-1.382-1.176-1.632a2.723 2.723 0 0 0-1.595-.49h-.578v8.597h-6.52Zm6.52-12.595h2.747a9.587 9.587 0 0 0 1.722-.289 1.715 1.715 0 0 0 1.053-.664c.271-.35.415-.782.41-1.226a1.956 1.956 0 0 0-.647-1.573c-.43-.366-1.238-.549-2.425-.549h-2.86v4.301ZM0 39.64l6.182-.388c.135 1.011.408 1.78.818 2.31.663.855 1.622 1.284 2.876 1.284.927 0 1.641-.22 2.145-.658a1.97 1.97 0 0 0 .752-1.524 1.95 1.95 0 0 0-.705-1.471c-.47-.432-1.58-.84-3.328-1.225-2.85-.647-4.882-1.503-6.097-2.57a5.171 5.171 0 0 1-1.381-1.832 5.201 5.201 0 0 1-.455-2.253 5.581 5.581 0 0 1 .94-3.076 6.231 6.231 0 0 1 2.822-2.28c1.254-.554 2.978-.83 5.173-.83 2.687 0 4.736.503 6.147 1.509 1.41 1.006 2.25 2.605 2.518 4.797l-6.114.362c-.156-.946-.498-1.64-1.025-2.08-.527-.44-1.247-.655-2.16-.647-.755 0-1.323.157-1.706.473a1.477 1.477 0 0 0-.573 1.183 1.189 1.189 0 0 0 .47.91c.306.28 1.032.54 2.18.779 2.84.615 4.878 1.238 6.114 1.869 1.235.63 2.128 1.412 2.68 2.344.563.946.854 2.03.84 3.132a6.736 6.736 0 0 1-1.117 3.752 7.025 7.025 0 0 1-3.128 2.603c-1.34.591-3.028.887-5.065.887-3.576 0-6.052-.692-7.43-2.077C.995 43.538.203 41.777 0 39.64Zm38.329-1.658 5.695 1.732a10.61 10.61 0 0 1-1.808 4.021 7.874 7.874 0 0 1-3.057 2.44c-1.22.547-2.772.82-4.656.82-2.286 0-4.153-.333-5.601-1-1.449-.668-2.703-1.843-3.763-3.528-1.053-1.683-1.579-3.836-1.578-6.46 0-3.499.925-6.189 2.775-8.07 1.85-1.882 4.468-2.822 7.854-2.82 2.651 0 4.734.54 6.248 1.618 1.514 1.079 2.64 2.735 3.377 4.968l-5.738 1.285a4.984 4.984 0 0 0-.63-1.42 3.768 3.768 0 0 0-1.333-1.154 3.816 3.816 0 0 0-1.766-.405c-1.472 0-2.6.596-3.384 1.789-.596.884-.893 2.273-.891 4.166 0 2.343.354 3.95 1.063 4.821.708.87 1.703 1.305 2.984 1.304 1.241 0 2.182-.351 2.821-1.053.64-.702 1.102-1.72 1.388-3.054ZM49.03 25.484h6.497v7.4h7.102v-7.4h6.525V46.64h-6.525v-8.552h-7.102v8.56H49.03V25.483Zm24.168 10.591c0-3.45.957-6.14 2.87-8.067 1.912-1.927 4.577-2.89 7.994-2.886 3.499 0 6.195.946 8.089 2.839 1.894 1.892 2.843 4.54 2.848 7.941 0 2.475-.414 4.503-1.242 6.085a8.857 8.857 0 0 1-3.586 3.693c-1.568.88-3.516 1.32-5.846 1.32-2.37 0-4.33-.38-5.878-1.14a8.862 8.862 0 0 1-3.779-3.608c-.981-1.644-1.471-3.702-1.47-6.177Zm6.497.03c0 2.138.392 3.672 1.176 4.605.784.932 1.858 1.398 3.222 1.398 1.396 0 2.477-.457 3.242-1.37.765-.913 1.148-2.554 1.148-4.92 0-1.993-.4-3.448-1.2-4.368-.799-.92-1.882-1.378-3.25-1.377a3.925 3.925 0 0 0-3.143 1.391c-.795.947-1.193 2.494-1.195 4.642Z"/><path d="M92.243 36.075c0-3.45.956-6.14 2.869-8.067 1.912-1.927 4.577-2.89 7.994-2.886 3.502 0 6.2.946 8.092 2.838 1.892 1.893 2.838 4.541 2.838 7.945 0 2.474-.413 4.502-1.239 6.084a8.868 8.868 0 0 1-3.586 3.693c-1.568.88-3.516 1.32-5.846 1.32-2.372 0-4.331-.38-5.879-1.14a8.88 8.88 0 0 1-3.78-3.608c-.976-1.645-1.463-3.704-1.463-6.179Zm6.5.03c0 2.138.391 3.672 1.175 4.605.784.932 1.859 1.398 3.226 1.4 1.397 0 2.478-.457 3.243-1.37.765-.913 1.147-2.553 1.147-4.92 0-1.992-.399-3.448-1.197-4.368-.798-.92-1.881-1.378-3.249-1.377a3.942 3.942 0 0 0-3.151 1.389c-.798.946-1.197 2.494-1.195 4.642Z"/><path d="M113.359 25.484h6.499V41.43H130v5.205h-16.641V25.484Z"/></g><defs><clipPath id="a"><path fill="#fff" d="M0 0h130v47H0z"/></clipPath></defs></svg>